<?xml version="1.0" encoding="UTF-8"?>
<svg id="Layer_2" data-name="Layer 2" xmlns="http://www.w3.org/2000/svg" viewBox="0 0 1406.69 344.89">
  <g id="Layer_1-2" data-name="Layer 1">
    <g>
      <path d="M23.79,275.01c6.66.49,13.39,5.2,13.64,11.7.33,8.71,4.69,15.57,13.77,17.81,31.12,7.66,64.09-46.91,78.8-73.38,14.72-26.49,27.46-53.01,40.46-80.43,9.6-20.25,19.04-39.44,30.22-58.75,12.98-21.26,27.03-39.71,48.89-54.22l-42.54-9.22c-16.96-3.67-33.86-4.71-51.06-3.51-19.11,1.32-36.97,6.1-53.19,15.94-15.37,9.32-27.63,22.34-33.55,39.33-4.27,12.26-3.47,25.53,3.94,35.95,4.93,6.94,12.79,10.66,20.5,11.07,8.4.45,15.77-3.53,21.26-9.99,10.21,4.81-1.34,20.75-14.5,26.53-17.61,7.73-39.09,5-53.35-8.36-11.57-10.84-15.64-26.53-14.14-42.15,3.07-32.04,28.21-58.97,56.16-74.09C128.43-2.04,176.43-3.47,220.27,4.37c21.78,3.89,42.31,8.8,63.82,14.17,27.77,6.93,54.67,13.26,82.86,18.06,27.16,4.62,58.87,6.64,83.56-4.77,12.1-5.59,22.11-14.11,27.86-26.23.86-1.81,2.67-3.44,4.31-3.47,12.79-.18-6.09,68.12-95.55,62.27-38.55-2.52-75.21-11.52-113.12-20.23-9.05,6.04-15.68,14.26-21.62,23.54-11.33,17.71-21.03,35.6-30.12,54.74l-37.99,79.97c-10.18,21.42-20.63,41.69-33.45,61.54-26.97,41.77-68.67,78.63-120.47,66.27-9.54-2.28-17.71-6.88-23.74-14.29-7.44-9.13-8.99-21.8-2.61-31.66,4.28-6.62,11.21-9.92,19.8-9.28Z"/>
      <path d="M1393.74,291.81c2.78-2.6,7.79-.96,9.73,2.06,10.49,16.36-5.71,46.08-34.46,50.31-21.3,3.14-43.09-4.74-61.91-15.23l-25.89-14.44-9.99,11.25c-18.2,17.92-48.18,17.89-56.72.25-7.25-14.98,3.22-31.27,20.47-37.43,10.69-3.82,21.57-3.69,33.15-1.8,4.09-17.5,6.56-34.27,8.26-51.88h-25.79s5.42-21.45,5.42-21.45l21.17-.03c.68-35.68,7.27-71.65,37.84-92.92,16.18-11.26,35.73-15.49,54.7-11.07,18.81,4.39,32.69,19.78,25.65,35.31-4.28,9.46-19.08,13.28-24.86,5.64,4.16-3.45,6.5-6.98,6.05-11.94-.39-4.22-3.58-8.75-8.21-10.35-10.77-3.7-21.74-.64-30.25,6.84-14.79,12.98-22.86,38.62-25.04,58.32l-2.23,20.17h55.94s-5.46,21.49-5.46,21.49h-52.82c-3.2,20.31-8.25,39.84-16.36,58.85l35.46,15.52c17.87,7.82,43.4,13.19,58.2,1,5.71-4.7,8.42-10.65,7.96-18.48ZM1262.03,304.94c-12.23-4.93-28.29-2.79-30.39,6.94-.7,3.26.15,7.52,3.14,9.27,11.07,6.48,22.76-3.52,27.25-16.21Z"/>
      <path d="M680.17,292.67l-50.61.41-38.51-65.94-20.79-.13-.03,66-41.45.07-.02-187.71,74.78-.06c11.16,0,21.46,1.31,31.8,4.96,13.48,5.25,24.16,14.67,30.14,27.92,12.58,32.05,2.19,67.63-30.36,81.54l45.06,72.93ZM626.87,164.56c-.31-12.68-9.99-21.77-22.11-21.85l-34.54-.23.05,47.7,35.93-.5c13.05-.18,22.09-11.97,20.66-25.12Z"/>
      <path d="M1011.06,296.03c-21.82,1.23-41.53-8.21-53.26-26.37-16.66-25.8-16.57-59.77-.88-86.03,12.3-19.52,33.34-30.37,56.05-27.97,12.45,1.31,22.78,6.66,31.29,15.94l.05-66.25h39.8s.01,187.59.01,187.59l-37.43.21-.24-14.56c-9.44,10.43-20.71,16.62-35.4,17.44ZM1041.17,243.07c5.23-11.27,4.97-23.76.1-34.63-4.56-10.17-13.96-16.62-24.34-17.16s-20.38,4.52-26.11,14.15c-6.63,11.13-6.96,25.28-1.83,37.21,4.69,10.9,14.92,17.32,26.12,17.35,10.96.03,21.04-6.08,26.07-16.91Z"/>
      <path d="M359.06,241.76c-9.22,18-21.49,33.36-37.29,45.03-7.31,5.39-15.72,8.29-24.54,8.57-11.53.36-21.1-6.6-23.33-17.95-1.16-5.89-.46-11.93.36-18.3-13.38,16.4-27.53,33.47-49.16,35.95-15.76,1.8-29-8.09-32.01-23.84-2.03-10.6-.87-21.62,2.77-32.33,9.74-28.63,27.44-53.72,50.78-72.89,14.96-12.28,36.1-21.56,54.69-16.87,8.07,2.03,13.34,7.48,15.77,16.04l7.45-14.95,35.49-.02-47.97,96.02c-4.05,8.11-7.15,18.07-1.75,22.62,10.68,8.99,33.37-22.42,42.4-35.01.85-1.18,4.52.06,5.36,1.25s1.96,4.75.97,6.68ZM254.33,261.62l14.3-14.77c13.63-16.82,24.65-34.76,33.32-54.58,2.43-5.56,3.12-11.89,1.91-17.65-1.27-6.1-7.11-9.21-13.05-7.54-3.99,1.12-8.77,3.14-11.77,6.15l-14.52,14.55c-12.9,15.4-23.14,32.42-30.89,50.93-3.96,9.45-6.14,22.75-.04,27.82,5.23,4.34,15.89.09,20.73-4.91Z"/>
      <path d="M776.36,248.66l27.27,19.79c-8.24,11.08-18.74,18.83-31.52,23.12-33.81,11.35-74.46,1.92-91.44-30.59-11.77-22.55-11.36-49.64,1.08-71.74,13.62-24.21,39.83-36.01,67.08-33.52,28.29,2.59,50.49,22.18,55.95,50.25,2.04,10.49,1.85,21.13.76,31.77l-92.36.02c1.77,10.37,8.69,18.03,18.35,21.46,15.46,5.49,32.4,1.65,44.83-10.56ZM767.22,211.66c-1.1-14.56-13.19-24.38-27.61-23.51s-24.57,10.28-26.31,23.63l53.93-.11Z"/>
      <path d="M893.54,280.32c-13.38,17.11-38.78,19.52-57.6,11.43-12.61-5.42-21.19-16.12-23.4-29.66-3.1-19.05,6.13-36.57,23.8-44.4,9.12-4.04,18.95-6.68,29.24-6.81l26.47-.31c1.25-7.49-.8-15.51-7.72-19.31-15.49-6.71-33.04-1.2-42.98,12.93l-26.49-17.76c7.51-13.18,18.38-21.19,31.81-26.41,25.42-9.24,62.46-5.3,77.39,17.55,5.17,7.92,7.91,17.52,7.96,27.08l.23,51.46c0,1.39.85,4.4,1.93,5.02,1.26.73,4.05.89,6.5,1.03l.02,30.86-42.25.06-4.9-12.78ZM890.84,251.94c2.08-5.28,1.83-11.21,1.48-16.28l-21.81.37c-5.9.1-12.25,2.4-16.17,6.74-3.66,4.05-3.75,10.18-1.24,15.1,1.85,3.63,6.59,6.46,11.55,7.19,10.68,1.56,21.93-2.27,26.2-13.12Z"/>
      <path d="M1170.84,308.99c-7.6,19.2-19.13,31.85-40.27,33.34-11.88.83-23.48-1.42-34.5-5.75l9.11-32.62,13.83,4c11.39-.59,16.94-6.44,18.55-17.63l-47.64-131.25,41.7-.12,26.74,83.7,26.94-83.73,41.34.13-55.8,149.94Z"/>
      <path d="M441.34,292.57c-16.85-7.51-18.13-29.44-21.72-48l-18.31,24.96c-5.36,7.31-11.18,14.03-18.04,19.9-6.15,5.25-14.57,6.97-22.22,4.99-5.45-1.41-9.36-6.35-10.06-10.66-1.03-6.3,1.16-11.9,6.61-14.99,8.54-4.84,14.22,6,25.45-5.57,12.36-12.73,22.81-26.44,33.41-40.54l-6.39-44c-.27-1.86-2.75-4.83-4.26-5.52-6.52-2.97-15.81,9.35-20.45,18.8-1.44.44-4.54-.75-5.48-1.93-1.14-1.43-1.91-5.15-1.16-7,6.6-16.18,19.23-30.77,36.26-33.84,12.97-2.34,24.31,4.95,27.79,17.69l5.02,26.17c10.33-13.09,19.31-25.44,30.23-36.62,5.46-5.59,12.58-8.83,20.06-8.33,6.5.44,11.76,3.99,13.72,9.27,2.2,5.92,1.04,12.5-3.69,16.93-3.87,3.63-9.24,4.85-13.98,1.89-7.35-4.59-15.05,3.31-21.78,11.37l-21.77,26.05,7.78,46.41c.64,3.83,3.87,7.86,6.61,9.13,11.08,5.15,23.63-11.16,31.65-22.54,1.72.22,4.01,1.22,4.84,2.38.95,1.34,1.43,5.73.7,7.3-11,23.58-36.09,47.32-60.8,36.3Z"/>
    </g>
  </g>
</svg>